<svg width="28" height="20" viewBox="0 0 28 20" fill="none" xmlns="http://www.w3.org/2000/svg">
<path d="M0.5 8C0.5 3.85786 3.85786 0.5 8 0.5H20C24.1421 0.5 27.5 3.85786 27.5 8V12C27.5 16.1421 24.1421 19.5 20 19.5H8C3.85786 19.5 0.5 16.1421 0.5 12V8Z" fill="white" fill-opacity="0.7"/>
<path d="M0.5 8C0.5 3.85786 3.85786 0.5 8 0.5H20C24.1421 0.5 27.5 3.85786 27.5 8V12C27.5 16.1421 24.1421 19.5 20 19.5H8C3.85786 19.5 0.5 16.1421 0.5 12V8Z" stroke="#E5E5E8"/>
<path d="M8.09438 13.5H6.83754L9.63051 5.72266H10.9948L13.7985 13.5H12.5416L11.8327 11.4482H8.80336L8.09438 13.5ZM9.14711 10.46H11.4889L10.3395 7.14062H10.2858L9.14711 10.46ZM17.0912 13.5H14.5668V5.72266H17.1664C19.4545 5.72266 20.8295 7.18359 20.8295 9.60059C20.8295 12.0283 19.4545 13.5 17.0912 13.5ZM15.7484 12.4688H17.0267C18.7884 12.4688 19.6586 11.4375 19.6586 9.60059C19.6586 7.77441 18.7884 6.75391 17.0912 6.75391H15.7484V12.4688Z" fill="#888888"/>
</svg>
